<svg width="42" height="42" viewBox="0 0 42 42" fill="none" xmlns="http://www.w3.org/2000/svg">
<g filter="url(#filter0_d_341_345)">
<circle cx="21" cy="17" r="17" fill="black"/>
<path d="M13.3178 25H16.8131V13.6844H13.3178V25Z" fill="#B9FF66"/>
<path d="M13 10.0719C13 11.1875 13.9003 12.0906 15.0654 12.0906C16.1776 12.0906 17.0779 11.1875 17.0779 10.0719C17.0779 8.95625 16.1776 8 15.0654 8C13.9003 8 13 8.95625 13 10.0719Z" fill="#B9FF66"/>
<path d="M26.4517 25H30V18.7844C30 15.7562 29.3115 13.3656 25.7632 13.3656C24.0685 13.3656 22.9034 14.3219 22.4268 15.225H22.3738V13.6844H19.0374V25H22.5327V19.4219C22.5327 17.9344 22.7975 16.5 24.6511 16.5C26.4517 16.5 26.4517 18.2 26.4517 19.475V25Z" fill="#B9FF66"/>
</g>
<defs>
<filter id="filter0_d_341_345" x="0" y="0" width="42" height="42" filterUnits="userSpaceOnUse" color-interpolation-filters="sRGB">
<feFlood flood-opacity="0" result="BackgroundImageFix"/>
<feColorMatrix in="SourceAlpha" type="matrix" values="0 0 0 0 0 0 0 0 0 0 0 0 0 0 0 0 0 0 127 0" result="hardAlpha"/>
<feOffset dy="4"/>
<feGaussianBlur stdDeviation="2"/>
<feComposite in2="hardAlpha" operator="out"/>
<feColorMatrix type="matrix" values="0 0 0 0 0 0 0 0 0 0 0 0 0 0 0 0 0 0 0.25 0"/>
<feBlend mode="normal" in2="BackgroundImageFix" result="effect1_dropShadow_341_345"/>
<feBlend mode="normal" in="SourceGraphic" in2="effect1_dropShadow_341_345" result="shape"/>
</filter>
</defs>
</svg>
